<svg width="20" height="20" viewBox="0 0 20 20" fill="none" xmlns="http://www.w3.org/2000/svg">
<path d="M9.5 2.99983C9.63261 2.99983 9.75979 3.0525 9.85355 3.14627C9.94732 3.24004 10 3.36722 10 3.49983C10 3.63243 9.94732 3.75961 9.85355 3.85338C9.75979 3.94715 9.63261 3.99983 9.5 3.99983H6C5.46957 3.99983 4.96086 4.21054 4.58579 4.58561C4.21071 4.96068 4 5.46939 4 5.99983V13.9998C4 14.5303 4.21071 15.039 4.58579 15.414C4.96086 15.7891 5.46957 15.9998 6 15.9998H14C14.5304 15.9998 15.0391 15.7891 15.4142 15.414C15.7893 15.039 16 14.5303 16 13.9998V12.4998C16 12.3672 16.0527 12.24 16.1464 12.1463C16.2402 12.0525 16.3674 11.9998 16.5 11.9998C16.6326 11.9998 16.7598 12.0525 16.8536 12.1463C16.9473 12.24 17 12.3672 17 12.4998V13.9998C17 14.7955 16.6839 15.5585 16.1213 16.1211C15.5587 16.6838 14.7956 16.9998 14 16.9998H6C5.20435 16.9998 4.44129 16.6838 3.87868 16.1211C3.31607 15.5585 3 14.7955 3 13.9998V5.99983C3 5.20418 3.31607 4.44111 3.87868 3.87851C4.44129 3.3159 5.20435 2.99983 6 2.99983H9.5ZM13.297 2.04283C13.3853 2.00347 13.4831 1.99055 13.5786 2.00564C13.6741 2.02072 13.7631 2.06317 13.835 2.12783L18.835 6.62783C18.8872 6.67472 18.929 6.73207 18.9576 6.79616C18.9861 6.86026 19.0009 6.92965 19.0009 6.99983C19.0009 7.07 18.9861 7.13939 18.9576 7.20349C18.929 7.26758 18.8872 7.32493 18.835 7.37183L13.835 11.8718C13.7632 11.9367 13.674 11.9793 13.5784 11.9945C13.4829 12.0096 13.3849 11.9968 13.2965 11.9574C13.2081 11.918 13.133 11.8538 13.0804 11.7726C13.0278 11.6914 12.9998 11.5966 13 11.4998V9.33983C11.6 9.46783 10.335 10.1198 9.3 10.9478C8.286 11.7608 7.525 12.7158 7.105 13.4318L6.947 13.7228C6.89659 13.8234 6.81373 13.904 6.71182 13.9517C6.60991 13.9994 6.4949 14.0113 6.38539 13.9855C6.27588 13.9597 6.17827 13.8977 6.10834 13.8096C6.0384 13.7215 6.00023 13.6123 6 13.4998C6 11.4508 6.382 9.21583 7.519 7.47583C8.609 5.80783 10.367 4.64283 13 4.51283V2.49983L13.005 2.42683C13.0173 2.34339 13.0506 2.26442 13.1016 2.19728C13.1527 2.13014 13.2199 2.07701 13.297 2.04283Z" fill="white"/>
</svg>
